<svg xmlns="http://www.w3.org/2000/svg" version="1.1" xmlns:xlink="http://www.w3.org/1999/xlink" xmlns:svgjs="http://svgjs.dev/svgjs" width="1500" height="306" viewBox="0 0 1500 306"><g transform="matrix(1,0,0,1,5.3767231368186685,-1.051728336945132)"><svg viewBox="0 0 396 81" data-background-color="#000000" preserveAspectRatio="xMidYMid meet" height="306" width="1500" xmlns="http://www.w3.org/2000/svg" xmlns:xlink="http://www.w3.org/1999/xlink"><g id="tight-bounds" transform="matrix(1,0,0,1,0.24000000000003752,0.2783986774266509)"><svg viewBox="0 0 395.5199999999999 80.44320264514668" height="80.44320264514668" width="395.5199999999999"><g><svg viewBox="0 0 519.1360891135682 105.58497577106519" height="80.44320264514668" width="395.5199999999999"><g transform="matrix(1,0,0,1,123.61608911356831,14.592424292527824)"><svg viewBox="0 0 395.52 76.40012718600954" height="76.40012718600954" width="395.52"><g id="textblocktransform"><svg viewBox="0 0 395.52 76.40012718600954" height="76.40012718600954" width="395.52" id="textblock"><g><svg viewBox="0 0 395.52 76.40012718600954" height="76.40012718600954" width="395.52"><g transform="matrix(1,0,0,1,0,0)"><svg width="395.52" viewBox="4.79 -33.33 174.70000000000002 33.75" height="76.40012718600954" data-palette-color="#ffffff"><path d="M8.75 0L4.79 0 4.79-31.25 8.75-31.25 8.75 0ZM20.62 0L16.87 0 16.87-20.83 20.34-20.83 20.34-17.47Q21.49-19.31 23.31-20.28 25.14-21.25 27.25-21.25L27.25-21.25Q29.48-21.25 31.37-20.16 33.26-19.06 34.44-17 35.62-14.93 35.62-11.98L35.62-11.98 35.62 0 31.87 0 31.87-11.46Q31.87-13.92 30.4-15.82 28.92-17.71 26.25-17.71L26.25-17.71Q24.06-17.71 22.34-16.13 20.62-14.55 20.62-11.56L20.62-11.56 20.62 0ZM48.05 0L44.3 0 44.3-17.71 39.58-17.71 39.58-20.83 44.4-20.83 44.4-27.78 47.95-27.78 47.95-20.83 53.12-20.83 53.12-17.71 48.05-17.71 48.05 0ZM67.42 0.42L67.42 0.42Q64.16 0.42 61.57-1.04 58.99-2.5 57.51-5.02 56.03-7.53 56.03-10.63L56.03-10.63Q56.03-13.58 57.46-15.99 58.88-18.4 61.29-19.83 63.71-21.25 66.62-21.25L66.62-21.25Q69.51-21.25 71.9-19.88 74.3-18.51 75.72-16.18 77.15-13.85 77.15-10.9L77.15-10.9 77.15-9.38 63.53-9.38Q62.63-9.38 61.69-9.44 60.76-9.51 59.85-9.65L59.85-9.65Q60.24-6.88 62.37-5 64.51-3.13 67.46-3.13L67.46-3.13Q69.44-3.13 71.14-4.03 72.84-4.93 73.88-6.42L73.88-6.42 74.92-2.15Q73.43-0.94 71.5-0.26 69.58 0.42 67.42 0.42ZM59.75-12.19L59.75-12.19Q61.62-12.5 63.53-12.5L63.53-12.5 70.44-12.5Q71.21-12.5 71.95-12.45 72.7-12.4 73.46-12.33L73.46-12.33Q72.98-14.76 71.03-16.34 69.09-17.92 66.62-17.92L66.62-17.92Q64.09-17.92 62.18-16.23 60.27-14.55 59.75-12.19ZM85.89 0L82.14 0 82.14-33.33 85.89-33.33 85.89 0ZM96.31 0L92.56 0 92.56-33.33 96.31-33.33 96.31 0ZM111.89 0.28L111.89 0.28Q109.05 0.28 106.69-1.16 104.33-2.6 102.92-5.03 101.51-7.47 101.51-10.42L101.51-10.42Q101.51-13.37 102.92-15.8 104.33-18.23 106.69-19.67 109.05-21.11 111.89-21.11L111.89-21.11Q114.05-21.11 115.94-20.31 117.83-19.51 119.22-18.09L119.22-18.09 119.22-20.83 122.69-20.83 122.69 0 119.22 0 119.22-2.74Q117.83-1.35 115.94-0.54 114.05 0.28 111.89 0.28ZM112.38-3.13L112.38-3.13Q114.36-3.13 115.97-4.11 117.59-5.1 118.54-6.75 119.5-8.4 119.5-10.42L119.5-10.42Q119.5-12.43 118.54-14.08 117.59-15.73 115.97-16.72 114.36-17.71 112.38-17.71L112.38-17.71Q110.4-17.71 108.79-16.72 107.17-15.73 106.22-14.08 105.26-12.43 105.26-10.42L105.26-10.42Q105.26-8.4 106.22-6.75 107.17-5.1 108.79-4.11 110.4-3.13 112.38-3.13ZM139.15 0L130.4 0 130.4-31.25 139.15-31.25Q142.14-31.25 143.89-30.07 145.64-28.89 146.41-27.2 147.17-25.52 147.17-24.03L147.17-24.03Q147.17-22.33 146.39-20.92 145.61-19.51 144.29-18.61L144.29-18.61Q146.82-17.47 148.4-15.17 149.98-12.88 149.98-9.97L149.98-9.97Q149.98-7.5 148.75-5.21 147.52-2.92 145.1-1.46 142.69 0 139.15 0L139.15 0ZM134.36-16.67L134.36-3.54 138.87-3.54Q141.44-3.54 143-4.55 144.57-5.56 145.3-7.08 146.02-8.61 146.02-10.1L146.02-10.1Q146.02-11.56 145.33-13.09 144.64-14.62 143.07-15.64 141.51-16.67 138.87-16.67L138.87-16.67 134.36-16.67ZM134.36-27.71L134.36-20 138.84-20Q140.89-20 142.15-20.99 143.42-21.98 143.42-23.82L143.42-23.82Q143.42-25.73 142.17-26.72 140.92-27.71 138.98-27.71L138.98-27.71 134.36-27.71ZM159.15 0L155.4 0 155.4-20.83 159.15-20.83 159.15 0ZM157.27-24.58L157.27-24.58Q156.23-24.58 155.5-25.31 154.77-26.04 154.77-27.08L154.77-27.08Q154.77-28.16 155.5-28.87 156.23-29.58 157.27-29.58L157.27-29.58Q158.35-29.58 159.06-28.87 159.77-28.16 159.77-27.08L159.77-27.08Q159.77-26.04 159.06-25.31 158.35-24.58 157.27-24.58ZM178.94 0L163.87 0 173.73-17.5 164.49-17.5 164.49-20.83 179.49-20.83 169.63-3.33 178.94-3.33 178.94 0Z" opacity="1" transform="matrix(1,0,0,1,0,0)" fill="#ffffff" class="wordmark-text-0" data-fill-palette-color="primary" id="text-0"></path></svg></g></svg></g></svg></g></svg></g><g><svg viewBox="0 0 105.57985268800391 105.58497577106519" height="105.58497577106519" width="105.57985268800391"><g><svg xmlns="http://www.w3.org/2000/svg" xmlns:xlink="http://www.w3.org/1999/xlink" version="1.1" x="0" y="0" viewBox="5.281964583308568 5.282 89.43266043202259 89.437" enable-background="new 0 0 100 100" xml:space="preserve" height="105.58497577106519" width="105.57985268800391" class="icon-icon-0" data-fill-palette-color="accent" id="icon-0"><path d="M92.422 44.456A7.8 7.8 0 0 0 86.876 42.158 7.78 7.78 0 0 0 82.088 43.798L74.64 36.35A7.77 7.77 0 0 0 76.28 31.562 7.8 7.8 0 0 0 73.983 26.017 7.8 7.8 0 0 0 68.439 23.721 7.78 7.78 0 0 0 63.651 25.361L56.203 17.912A7.77 7.77 0 0 0 57.843 13.124 7.8 7.8 0 0 0 55.546 7.579C54.063 6.097 52.094 5.282 50 5.282S45.937 6.098 44.456 7.579 42.159 11.029 42.159 13.124C42.159 14.88 42.74 16.545 43.799 17.912L36.351 25.36A7.78 7.78 0 0 0 31.563 23.72 7.8 7.8 0 0 0 26.018 26.017 7.8 7.8 0 0 0 23.722 31.561C23.722 33.317 24.303 34.982 25.362 36.349L17.914 43.797A7.78 7.78 0 0 0 13.126 42.158 7.8 7.8 0 0 0 7.581 44.455 7.78 7.78 0 0 0 5.282 50C5.282 52.095 6.097 54.064 7.578 55.544A7.8 7.8 0 0 0 13.124 57.842 7.8 7.8 0 0 0 18.668 55.545C21.485 52.728 21.7 48.285 19.325 45.211L26.773 37.763A7.78 7.78 0 0 0 31.562 39.403 7.8 7.8 0 0 0 37.105 37.107 7.8 7.8 0 0 0 39.402 31.562 7.78 7.78 0 0 0 37.762 26.774L45.21 19.326C46.576 20.385 48.241 20.966 49.998 20.966S53.419 20.385 54.787 19.326L62.235 26.775A7.77 7.77 0 0 0 60.595 31.562 7.78 7.78 0 0 0 62.892 37.106 7.8 7.8 0 0 0 68.437 39.403 7.77 7.77 0 0 0 73.224 37.763L80.673 45.212A7.85 7.85 0 0 0 80.673 54.788L73.225 62.236A7.78 7.78 0 0 0 68.437 60.596 7.8 7.8 0 0 0 62.892 62.893 7.8 7.8 0 0 0 60.595 68.437C60.595 70.194 61.176 71.859 62.236 73.225L54.788 80.673A7.78 7.78 0 0 0 49.999 79.034 7.78 7.78 0 0 0 45.211 80.673L37.763 73.225C38.822 71.858 39.403 70.194 39.403 68.437S38.822 65.016 37.763 63.649L45.211 56.201A7.77 7.77 0 0 0 49.999 57.841C52.093 57.841 54.062 57.026 55.543 55.545S57.841 52.095 57.841 50A7.8 7.8 0 0 0 55.543 44.454 7.8 7.8 0 0 0 50 42.158 7.8 7.8 0 0 0 44.455 44.456 7.8 7.8 0 0 0 42.158 50C42.158 51.756 42.739 53.421 43.798 54.788L36.35 62.236A7.78 7.78 0 0 0 31.563 60.596 7.8 7.8 0 0 0 26.018 62.894 7.8 7.8 0 0 0 23.721 68.438C23.721 70.533 24.536 72.501 26.017 73.983A7.8 7.8 0 0 0 31.562 76.28C33.319 76.28 34.983 75.7 36.35 74.64L43.799 82.088C41.424 85.161 41.639 89.604 44.456 92.422 45.937 93.903 47.907 94.719 50.001 94.719S54.064 93.904 55.546 92.422C58.363 89.605 58.578 85.161 56.203 82.088L63.651 74.64A7.77 7.77 0 0 0 68.439 76.281 7.78 7.78 0 0 0 73.983 73.984 7.78 7.78 0 0 0 76.28 68.439 7.77 7.77 0 0 0 74.64 63.651L82.088 56.203A7.77 7.77 0 0 0 86.876 57.843 7.8 7.8 0 0 0 92.421 55.547C95.479 52.488 95.479 47.513 92.422 44.456M17.254 54.131A5.8 5.8 0 0 1 13.124 55.842 5.8 5.8 0 0 1 8.992 54.13 5.8 5.8 0 0 1 7.282 50C7.282 48.439 7.889 46.973 8.992 45.869 10.096 44.765 11.563 44.158 13.123 44.158S16.151 44.765 17.253 45.868A5.85 5.85 0 0 1 17.254 54.131M35.692 35.692A5.8 5.8 0 0 1 31.563 37.402 5.8 5.8 0 0 1 27.432 35.691C26.329 34.587 25.721 33.121 25.721 31.561S26.328 28.534 27.431 27.431A5.8 5.8 0 0 1 31.562 25.72C33.122 25.72 34.589 26.328 35.692 27.431A5.8 5.8 0 0 1 37.403 31.562C37.403 33.122 36.795 34.589 35.692 35.692M45.869 17.254A5.8 5.8 0 0 1 44.158 13.124C44.158 11.563 44.765 10.097 45.869 8.993S48.439 7.282 49.999 7.282 53.027 7.89 54.13 8.993A5.8 5.8 0 0 1 55.841 13.124 5.8 5.8 0 0 1 54.13 17.254C53.026 18.357 51.559 18.965 49.999 18.965S46.973 18.357 45.869 17.254M64.308 35.691A5.8 5.8 0 0 1 62.597 31.561C62.597 30.001 63.204 28.535 64.308 27.431S66.878 25.72 68.439 25.72 71.465 26.327 72.569 27.43A5.8 5.8 0 0 1 74.28 31.561 5.8 5.8 0 0 1 72.569 35.691C71.466 36.794 70 37.402 68.439 37.402S65.411 36.795 64.308 35.691M45.869 45.87C46.973 44.766 48.44 44.158 50 44.158S53.026 44.765 54.129 45.868A5.8 5.8 0 0 1 55.841 50 5.8 5.8 0 0 1 54.129 54.131 5.8 5.8 0 0 1 49.999 55.841C48.438 55.841 46.972 55.234 45.868 54.13S44.157 51.56 44.157 50 44.766 46.973 45.869 45.87M27.431 72.568A5.8 5.8 0 0 1 25.72 68.438C25.72 66.877 26.328 65.411 27.431 64.307A5.8 5.8 0 0 1 31.562 62.595C33.122 62.595 34.589 63.203 35.692 64.306 36.796 65.41 37.403 66.876 37.403 68.437S36.796 71.464 35.692 72.568 33.122 74.279 31.562 74.279A5.8 5.8 0 0 1 27.431 72.568M54.132 91.008C53.028 92.111 51.562 92.719 50.001 92.719S46.973 92.111 45.87 91.008A5.85 5.85 0 0 1 45.87 82.745C46.974 81.642 48.44 81.035 50.001 81.035S53.029 81.642 54.133 82.745A5.85 5.85 0 0 1 54.132 91.008M72.569 72.569C71.466 73.673 70 74.28 68.439 74.28S65.412 73.672 64.308 72.568 62.596 69.998 62.596 68.437 63.203 65.411 64.307 64.307 66.877 62.596 68.438 62.596C69.998 62.596 71.465 63.203 72.569 64.307S74.28 66.877 74.28 68.438 73.673 71.466 72.569 72.569M91.008 54.132C89.904 55.235 88.438 55.842 86.877 55.842S83.85 55.235 82.746 54.131A5.85 5.85 0 0 1 82.745 45.869C83.849 44.766 85.315 44.158 86.876 44.158S89.904 44.766 91.008 45.87A5.85 5.85 0 0 1 91.008 54.132" fill="#805af5" data-fill-palette-color="accent"></path></svg></g></svg></g></svg></g><defs></defs></svg><rect width="395.5199999999999" height="80.44320264514668" fill="none" stroke="none" visibility="hidden"></rect></g></svg></g></svg>